<?xml version="1.0" encoding="utf-8"?>
<!-- Generator: Adobe Illustrator 22.1.0, SVG Export Plug-In . SVG Version: 6.00 Build 0)  -->
<svg version="1.1" id="Warstwa_1" xmlns="http://www.w3.org/2000/svg" xmlns:xlink="http://www.w3.org/1999/xlink" x="0px" y="0px"
	 viewBox="0 0 69 68" style="enable-background:new 0 0 69 68;" xml:space="preserve">
<style type="text/css">
	.st0{fill:#D1D3D4;}
</style>
<g>
	<path class="st0" d="M58.3,47.7c-1.4,2.4-4,2.7-6.8,1.2c-4.9-2.9-5.9-7.2-16.1-13.4c0.3,12,3.5,15.1,3.5,20.7
		c0,3.2-1.4,5.2-4.3,5.2s-4.3-2-4.3-5.2c0-5.8,3.5-8.8,3.7-20.9C23.6,41.6,22.4,46,17.5,48.8c-2.7,1.6-5.3,1.3-6.8-1.2
		c-1.4-2.4-0.3-4.8,2.4-6.3c4.9-2.7,9.4-1.4,19.9-7.2c-10.7-5.9-15-4.8-19.9-7.5c-2.7-1.6-3.9-3.9-2.4-6.3c1.4-2.4,4-2.7,6.8-1.2
		c4.9,2.9,5.9,7.5,16.4,13.8c-0.1-12.2-3.7-15.4-3.7-21.2c0-3.2,1.4-5.2,4.3-5.2s4.3,2,4.3,5.2c0,5.8-3.3,8.9-3.5,21
		C45.6,26.7,46.6,22,51.5,19.2c2.7-1.6,5.3-1.3,6.8,1.2s0.3,4.8-2.4,6.3c-4.9,2.7-9.2,1.6-19.9,7.5c10.5,5.8,15,4.5,19.9,7.2
		C58.5,42.9,59.7,45.2,58.3,47.7z"/>
</g>
</svg>
