<?xml version="1.0" encoding="utf-8"?>
<!-- Generator: Adobe Illustrator 22.1.0, SVG Export Plug-In . SVG Version: 6.00 Build 0)  -->
<svg version="1.1" id="Warstwa_1" xmlns="http://www.w3.org/2000/svg" xmlns:xlink="http://www.w3.org/1999/xlink" x="0px" y="0px"
	 viewBox="0 0 935 114" style="enable-background:new 0 0 935 114;" xml:space="preserve">
<style type="text/css">
	.st0{fill:#FFFFFF;}
</style>
<g>
	<path class="st0" d="M8.4,85.8l5.5-57.5h7.4l-5.4,40.2l7.6-40.2h6.8l-4.8,40.2l7-40.2h7.2L27.3,85.8h-8.2l4.1-34.2L17,85.8H8.4z"/>
	<path class="st0" d="M52.5,28.2l-1.1,6.9h-5l-2.7,16.8H48L46.9,59h-4.4l-3.2,19.8h5.3l-1.1,7H31l9.2-57.5H52.5z"/>
	<path class="st0" d="M67.7,28.2H75l-3.8,23.5h1.6l3.8-23.5h7.3l-9.2,57.5h-7.3l4.2-26.2H70l-4.2,26.2h-7.3L67.7,28.2z"/>
	<path class="st0" d="M86.3,74.1h-2.4l-2.2,11.7h-6.4l12.7-57.5h9.4l-5.4,57.5h-7L86.3,74.1z M89.9,43.3l-4.7,24.2H87L89.9,43.3z"/>
	<path class="st0" d="M98.9,28.2h7.7l-4.9,40.6l7.9-40.6h7.2l-12.8,57.5H94L98.9,28.2z"/>
	<path class="st0" d="M129.6,28.2l-1.1,6.9h-5l-2.7,16.8h4.3l-1.1,7.1h-4.4l-3.2,19.8h5.3l-1.1,7h-12.5l9.2-57.5H129.6z"/>
	<path class="st0" d="M187.3,86.8c-34.2,0-36.1-13.5-35.2-20.7h33.6c0,2.5,0.4,6.2,8.4,6.2c7.4,0,8.9-2.2,8.9-4.1
		c0-2.3-1.2-3.6-10.5-4.3l-9.5-0.5c-21.2-1.2-26.2-8.9-26.2-17.8c0-1.2,0.2-2.8,0.5-3.8c2.2-10.1,12.6-14.7,38.1-14.7h9.6
		c33,0,35.2,10.7,34.6,18.5h-33c0-2.1-0.7-4.6-8.1-4.6c-6.7,0-8.6,0.9-8.6,3c0,2,1.8,3.2,10.6,3.6l9.4,0.5c21,1,28.1,5.8,28.1,16.2
		c0,1.6-0.1,2.9-0.2,4c-1.5,10.2-8.9,18.6-40.6,18.6H187.3z"/>
	<path class="st0" d="M281.7,86.9c-34.2,0-41-14.2-41-26.2c0-1.8,0.2-3.9,0.5-6c1.9-12.4,9.3-27.6,46-27.6h3.8
		c35.3,0,41.2,14.3,41.2,25.7c0,1.9-0.2,4.4-0.5,6.3c-2.2,12.1-8.9,27.8-46,27.8H281.7z M287.4,45.4c-12.1,0-16,5.3-16.9,10.2
		c-0.2,0.9-0.2,1.9-0.2,2.8c0,4.9,3.8,10,15,10c12,0,16.1-5.4,16.9-10.6c0.2-0.9,0.2-1.9,0.2-2.8C302.5,50.4,298.8,45.4,287.4,45.4z
		"/>
	<path class="st0" d="M364.3,28.2h37.3l9.7,25.6l17.1-25.6h36.5l-9.1,57.5h-28.5l4.5-28.4l-19.1,28.4H399l-10.7-28.4l-4.5,28.4
		h-28.5L364.3,28.2z"/>
	<path class="st0" d="M469.1,27.7h28.8l-3.7,23.4c-1,6.8,0.6,13.5,13.1,13.5h0.2c11.8,0,15.2-6.6,16.2-13.5l3.7-23.4h28.8l-3.9,24.9
		c-2.2,12.7-7.4,33.6-43.3,33.6h-3.7c-39.3,0-42.1-20.9-40-33.6L469.1,27.7z"/>
	<path class="st0" d="M595.9,86.9c-34.2,0-41.5-12.9-41.5-26.2c0-2.7,0.2-5.2,0.5-6.6c1.9-11,7.9-27,45.8-27h2.6
		c38.4,0,41.7,16.9,40.5,24.1l-0.2,1.5h-28.9c0-1.2-1.2-7.3-13.8-7.3c-13.1,0-15.7,6-16.5,9.9c-0.2,1.3-0.4,2.5-0.4,3.5
		c0,5.2,2.9,9.7,13.8,9.7c12.9,0,15-6.5,15.4-7.9h29.1l-0.2,1c-1.2,7.7-4.9,25.4-43.6,25.4H595.9z"/>
	<path class="st0" d="M650.7,28.2h28.7l-3,19.1h29.3l3-19.1h28.7l-9.1,57.5h-28.7l3.2-20.5h-29.3l-3.2,20.5h-28.7L650.7,28.2z"/>
	<path class="st0" d="M774.8,85.8h-7.3l9.2-57.5h7.3L774.8,85.8z"/>
	<path class="st0" d="M792.8,28.2l-2.5,33.3l5.2-33.3h6l-9.1,57.5h-6.9l2.6-37.1l-5.9,37.1h-6l9.2-57.5H792.8z"/>
	<path class="st0" d="M817.6,78.3l3.1-19.4h7.1l-3.1,19.5c-0.6,3.9-2.2,7.7-7.8,7.7h-1.2c-5.8,0-7.9-3.3-7-8.3l6.7-41.9
		c0.9-5.2,2.8-8,8.3-8h1.2c4.9,0,7.5,2.6,6.6,7.5l-2.8,17.5h-7.2l2.8-17.3c0.1-0.5,0.2-1.2-0.6-1.2c-0.5,0-0.6,0.2-0.9,1.2
		l-6.9,42.9c-0.1,0.5-0.2,1.2,0.6,1.2C817.3,79.6,817.4,79.3,817.6,78.3z"/>
	<path class="st0" d="M842.6,78c-0.9,4.6-3,8.1-8.3,8.1h-1.1c-5.6,0-8-3.2-7.2-8.8l6.5-40.6c0.9-5.3,2.8-8.9,8.3-8.9h1.1
		c5.8,0,8,3.6,7.2,8.9L842.6,78z M841.8,35.8c0.2-0.9-0.1-1.3-0.7-1.3c-0.5,0-0.8,0.5-0.9,1.3l-6.7,42.1c-0.2,0.9-0.2,1.5,0.7,1.5
		c0.5,0,0.8-0.5,0.9-1.5L841.8,35.8z"/>
	<path class="st0" d="M851.8,28.2h8.2l-3.2,29.3l6-29.3h8.3l-9.2,57.5h-6.2l5.4-33.5l-7.6,33.5h-2.6l3.2-33.5l-5.4,33.5h-6
		L851.8,28.2z"/>
	<path class="st0" d="M872.2,28.2h8.2l-3.2,29.3l6-29.3h8.3l-9.2,57.5H876l5.4-33.5l-7.6,33.5h-2.6l3.2-33.5L869,85.8h-6L872.2,28.2
		z"/>
	<path class="st0" d="M901.3,78c-0.9,4.6-3,8.1-8.3,8.1h-1.1c-5.6,0-8-3.2-7.2-8.8l6.5-40.6c0.9-5.3,2.8-8.9,8.3-8.9h1.1
		c5.8,0,8,3.6,7.2,8.9L901.3,78z M900.5,35.8c0.2-0.9-0.1-1.3-0.7-1.3c-0.5,0-0.8,0.5-0.9,1.3l-6.7,42.1c-0.2,0.9-0.2,1.5,0.7,1.5
		c0.5,0,0.8-0.5,0.9-1.5L900.5,35.8z"/>
	<path class="st0" d="M918,28.2l-2.5,33.3l5.2-33.3h6l-9.1,57.5h-6.9l2.6-37.1l-5.9,37.1h-6l9.2-57.5H918z"/>
</g>
</svg>
