<?xml version="1.0" encoding="utf-8"?>
<!-- Generator: Adobe Illustrator 22.1.0, SVG Export Plug-In . SVG Version: 6.00 Build 0)  -->
<svg version="1.1" id="Warstwa_1" xmlns="http://www.w3.org/2000/svg" xmlns:xlink="http://www.w3.org/1999/xlink" x="0px" y="0px"
	 viewBox="0 0 935 114" style="enable-background:new 0 0 935 114;" xml:space="preserve">
<style type="text/css">
	.st0{fill:#241F20;}
</style>
<g>
	<path class="st0" d="M24.5,18.2h11.8l-4.7,42.2l8.6-42.2h11.9l-13.3,82.9H30l7.8-48.4l-10.9,48.4h-3.7l4.6-48.4l-7.8,48.4h-8.7
		L24.5,18.2z"/>
	<path class="st0" d="M55.6,84.3h-3.5l-3.2,16.8h-9.2l18.3-82.9h13.5l-7.8,82.9h-10L55.6,84.3z M60.8,39.9L54,74.8h2.7L60.8,39.9z"
		/>
	<path class="st0" d="M77.6,18.2h11.8l-4.7,42.2l8.6-42.2h11.9L92,101.1h-8.9l7.8-48.4L80,101.1h-3.7l4.6-48.4l-7.8,48.4h-8.7
		L77.6,18.2z"/>
	<path class="st0" d="M104.7,67.4l1.2-49.3h10.1l-3,31l6.7-31h9.7l-14.3,49.1l-5.2,33.8H99.5L104.7,67.4z"/>
	<path class="st0" d="M219.3,46.7h-34.9l4.6-28.5h111.1l-4.6,28.5h-34.9l-8.6,54.4h-41.3L219.3,46.7z"/>
	<path class="st0" d="M338.6,71.7l-37.7-53.5h45.9l16.8,25.1l25.1-25.1h45.4l-54.3,54l-4.5,28.9H334L338.6,71.7z"/>
	<path class="st0" d="M477,18.2l-8.5,53.4h55.9l-4.6,29.5h-97.4l13.1-82.9H477z"/>
	<path class="st0" d="M635.9,18.2l-3.7,23.2h-56.4l-1,6.5h55.8L627,70.6h-55.8l-1.1,7.1H627l-3.7,23.4h-97.7l13.1-82.9H635.9z"/>
	<path class="st0" d="M688.5,101.1l7.9-82.9h10.7l-7.8,57.9l10.9-57.9h9.8l-6.9,57.9l10-57.9h10.4l-17.7,82.9H704l5.9-49.3
		l-8.9,49.3H688.5z"/>
	<path class="st0" d="M732.2,101.7c-7.2,0-10.8-4-9.6-10.8l4-25.1h10.3l-4,25.2c-0.1,0.8,0,1.7,1,1.7c0.8,0,1-0.3,1.3-1.7l3.5-21.5
		c0.3-2.2-0.1-3.1-1.3-5l-3.8-5.7c-3.1-4.6-4.3-7.5-3.5-12.9l2.9-18.2c1-6.4,3.7-10,11.3-10h2.5c7.5,0,10,3.7,9.1,9.4l-3.6,22.2
		h-9.9l3.5-21.5c0.1-0.8,0-1.6-0.9-1.6c-0.9,0-1,0.4-1.3,1.8L740.7,46c-0.3,2.1,0.1,3.2,1,4.6l3.8,5.7c3.6,5.7,5,8.1,4.1,13.3
		l-3.3,21.2c-1.2,7.1-4.1,10.9-11.6,10.9H732.2z"/>
	<path class="st0" d="M762.3,65.3l-5.7,35.8h-10.5l13.3-82.9h14.7c4.8,0,7.7,2.5,6.8,8.6L776.1,57c-1,6.1-3.8,8.4-8.1,8.4H762.3z
		 M763.7,56.5h0.8c0.9,0,1.2-0.2,1.6-1.6l4.2-26.4c0.2-1.2-0.1-1.9-1-1.9h-0.8L763.7,56.5z"/>
	<path class="st0" d="M796.4,90c-1.2,6.7-4.3,11.7-11.9,11.7h-1.6c-8,0-11.6-4.7-10.4-12.7l9.4-58.5c1.2-7.7,4-12.8,12-12.8h1.6
		c8.4,0,11.6,5.1,10.4,12.8L796.4,90z M795.3,29.1c0.2-1.2-0.1-1.9-1-1.9c-0.7,0-1.1,0.7-1.3,1.9l-9.7,60.6c-0.3,1.3-0.2,2.1,1,2.1
		c0.7,0,1.1-0.7,1.3-2.1L795.3,29.1z M795.8,7.9h8.8l-5,9h-8.5L795.8,7.9z"/>
	<path class="st0" d="M820.1,18.2L808.5,91h6.6l-1.6,10.1h-17.2l13.3-82.9H820.1z"/>
	<path class="st0" d="M839,18.2l-3.6,48l7.5-48h8.6l-13.1,82.9h-9.9l3.7-53.5l-8.5,53.5H815l13.3-82.9H839z"/>
	<path class="st0" d="M871.1,18.2l-1.6,9.9h-7.2l-3.9,24.2h6.2l-1.6,10.3h-6.4l-4.6,28.5h7.6l-1.6,10h-18.1l13.3-82.9H871.1z"/>
	<path class="st0" d="M867.8,101.7c-6,0-7.5-5.5-6.6-11.7l9.8-61.3c0.9-6.2,3.5-11,11.8-11h1.4c8.6,0,10.8,4.8,9.9,11l-3.5,21.3
		h-10.3l3.5-21.3c0.2-1.2-0.1-1.9-0.9-1.9c-0.8,0-1,0.3-1.3,1.8l-9.9,62c-0.2,1.4,0.2,2.1,1.2,2.1c0.9,0,1.4-0.7,1.7-1.9l4.8-29.6
		h-2.1l1.3-8.5h11.9l-7.7,48.5h-7.1c0.1-1.2,0-3.3-0.3-4.3c-1.3,2.1-3.8,4.9-7.5,4.9H867.8z"/>
	<path class="st0" d="M910.5,90c-1.2,6.7-4.3,11.7-11.9,11.7H897c-8,0-11.6-4.7-10.4-12.7l9.4-58.5c1.2-7.7,4-12.8,12-12.8h1.6
		c8.4,0,11.6,5.1,10.4,12.8L910.5,90z M909.4,29.1c0.2-1.2-0.1-1.9-1-1.9c-0.7,0-1.1,0.7-1.3,1.9l-9.7,60.6c-0.3,1.3-0.2,2.1,1,2.1
		c0.7,0,1.1-0.7,1.3-2.1L909.4,29.1z"/>
	<path class="st0" d="M919.2,101.1h-9l1.9-12h9L919.2,101.1z"/>
</g>
</svg>
